<?xml version="1.0" encoding="UTF-8" standalone="no"?>
<svg
   data-name="Layer 1"
   viewBox="0 0 67.796753 78.254654"
   x="0px"
   y="0px"
   version="1.1"
   id="svg188"
   sodipodi:docname="fishing-rod.svg"
   width="67.796753"
   height="78.254654"
   inkscape:version="1.2.2 (b0a84865, 2022-12-01)"
   xmlns:inkscape="http://www.inkscape.org/namespaces/inkscape"
   xmlns:sodipodi="http://sodipodi.sourceforge.net/DTD/sodipodi-0.dtd"
   xmlns="http://www.w3.org/2000/svg"
   xmlns:svg="http://www.w3.org/2000/svg">
  <defs
     id="defs192" />
  <sodipodi:namedview
     id="namedview190"
     pagecolor="#ffffff"
     bordercolor="#000000"
     borderopacity="0.25"
     inkscape:showpageshadow="2"
     inkscape:pageopacity="0.0"
     inkscape:pagecheckerboard="0"
     inkscape:deskcolor="#d1d1d1"
     showgrid="false"
     inkscape:zoom="6.9309051"
     inkscape:cx="34.555371"
     inkscape:cy="40.254483"
     inkscape:window-width="1512"
     inkscape:window-height="822"
     inkscape:window-x="0"
     inkscape:window-y="38"
     inkscape:window-maximized="1"
     inkscape:current-layer="svg188" />
  <path
     d="m 64.513738,41.693653 0.835,-35.9220003 c 0.338,-0.542 0.491,-1.172 0.412,-1.815 -0.092,-0.743 -0.467,-1.406 -1.058,-1.867 -0.59,-0.46 -1.325,-0.663 -2.068,-0.572 -0.091,0.011 -0.176,0.039 -0.263,0.059 -0.124,-0.427 -0.373,-0.82000001 -0.749,-1.11400001 0,0 0,0 0,0 -0.953,-0.743 -2.332,-0.573 -3.075,0.38 l -40.156,51.46600031 c -0.175,0.224 -0.295,0.473 -0.37,0.73 -0.36,-0.112 -0.741,-0.154 -1.128,-0.107 -0.712,0.088 -1.346,0.446 -1.786,1.009 l -14.54199951,18.638 c -0.439,0.563 -0.633,1.265 -0.545,1.978 0.088,0.712 0.446,1.346 1.00900001,1.786 l 1.726,1.346 c 0.474,0.37 1.047,0.566 1.642,0.566 0.111,0 0.224,-0.007 0.336,-0.021 0.712,-0.088 1.346,-0.446 1.786,-1.009 l 14.2359995,-18.245 c 0.422,1.264 1.205,2.422 2.331,3.301 1.28,0.998 2.8,1.482 4.31,1.482 2.09,0 4.159,-0.927 5.541,-2.698 2.381,-3.051 1.835,-7.47 -1.216,-9.85 -1.735,-1.353 -3.911,-1.758 -5.904,-1.297 l 11.572,-14.831 c 0.08,0.726 0.438,1.42 1.057,1.904 0.511,0.399 1.119,0.592 1.722,0.592 0.835,0 1.661,-0.37 2.213,-1.078 0.951,-1.219 0.733,-2.984 -0.486,-3.935 v 0 c -0.62,-0.483 -1.38,-0.662 -2.103,-0.563 l 9.048,-11.596 c 0.184,0.417 0.458,0.79 0.827,1.078 0.498,0.388 1.098,0.594 1.719,0.594 0.116,0 0.232,-0.007 0.349,-0.022 0.743,-0.092 1.406,-0.467 1.867,-1.058 0.461,-0.59 0.664,-1.325 0.572,-2.068 -0.092,-0.743 -0.467,-1.406 -1.058,-1.867 -0.377,-0.294 -0.807,-0.463 -1.248,-0.539 l 8.596,-11.0170003 c 0.185,0.384 0.446,0.729 0.792,0.999 0.498,0.388 1.098,0.594 1.719,0.594 0.116,0 0.232,-0.007 0.349,-0.022 0.149,-0.018 0.292,-0.056 0.434,-0.097 l -0.806,34.6780003 c -1.961,0.473 -3.408,2.859 -3.401,5.823 0.007,2.944 1.446,5.312 3.39,5.798 -0.005,0.472 -0.028,1.105 -0.041,1.445 -0.012,0.321 -0.02,0.554 -0.02,0.671 v 3.882 c 0,1.745 -1.125,3.219 -2.458,3.219 -1.314,0 -2.422,-1.436 -2.452,-3.149 l 0.101,0.11 c 0.154,0.168 0.365,0.252 0.576,0.252 0.189,0 0.38,-0.068 0.53,-0.207 0.318,-0.293 0.338,-0.788 0.045,-1.106 l -1.465,-1.59 c 0,0 -0.009,-0.005 -0.013,-0.009 -0.042,-0.044 -0.096,-0.073 -0.147,-0.107 -0.035,-0.022 -0.065,-0.053 -0.102,-0.069 -0.037,-0.016 -0.079,-0.018 -0.118,-0.028 -0.06,-0.016 -0.118,-0.035 -0.18,-0.036 -0.006,0 -0.01,-0.003 -0.016,-0.003 -0.04,0 -0.075,0.017 -0.113,0.023 -0.058,0.008 -0.115,0.013 -0.17,0.034 -0.056,0.022 -0.102,0.058 -0.15,0.091 -0.032,0.021 -0.068,0.032 -0.097,0.059 -0.004,0.004 -0.005,0.009 -0.009,0.013 -0.045,0.043 -0.074,0.097 -0.108,0.149 -0.022,0.034 -0.052,0.064 -0.068,0.1 -0.016,0.037 -0.018,0.079 -0.028,0.118 -0.016,0.06 -0.035,0.118 -0.036,0.18 0,0.006 -0.003,0.01 -0.003,0.016 v 1.941 c 0,2.638 1.805,4.784 4.023,4.784 2.218,0 4.023,-2.146 4.023,-4.784 v -3.882 c 0,-0.089 0.009,-0.344 0.019,-0.614 0.025,-0.687 0.038,-1.167 0.041,-1.522 0.843,-0.237 1.604,-0.835 2.195,-1.746 0.71,-1.095 1.099,-2.534 1.096,-4.052 -0.007,-2.889 -1.391,-5.228 -3.28,-5.773 z m -23.584,-7.891 c 0.538,0.42 0.635,1.2 0.215,1.738 -0.42,0.539 -1.2,0.635 -1.738,0.215 -0.538,-0.42 -0.635,-1.2 -0.215,-1.738 0.244,-0.313 0.609,-0.476 0.978,-0.476 0.266,0 0.535,0.085 0.761,0.262 z m 11.221,-15.501 c 0.261,0.203 0.427,0.496 0.467,0.825 0.041,0.328 -0.049,0.653 -0.253,0.913 -0.204,0.261 -0.496,0.427 -0.825,0.467 -0.328,0.041 -0.653,-0.049 -0.914,-0.253 -0.261,-0.203 -0.427,-0.496 -0.467,-0.825 -0.041,-0.328 0.049,-0.653 0.253,-0.914 0.244,-0.313 0.609,-0.476 0.978,-0.476 0.266,0 0.535,0.085 0.76,0.262 v 0 z m -32.527,34.969 40.156,-51.4660003 c 0.123,-0.158 0.308,-0.241 0.494,-0.241 0.135,0 0.27,0.043 0.385,0.132 v 0 c 0.272,0.213 0.321,0.607 0.109,0.879 l -40.156,51.4650003 c -0.102,0.131 -0.25,0.214 -0.417,0.235 -0.167,0.02 -0.331,-0.024 -0.462,-0.126 -0.131,-0.102 -0.214,-0.25 -0.234,-0.417 -0.02,-0.167 0.024,-0.331 0.126,-0.462 z m 0.202,4.353 -14.5419995,18.638 c -0.182,0.233 -0.446,0.382 -0.743,0.419 -0.297,0.037 -0.59,-0.043 -0.823,-0.226 l -1.726,-1.347 c -0.233,-0.182 -0.382,-0.446 -0.419,-0.743 -0.037,-0.297 0.043,-0.59 0.225,-0.823 l 14.5419995,-18.638 c 0.182,-0.233 0.446,-0.382 0.743,-0.419 0.047,-0.006 0.094,-0.009 0.141,-0.009 0.248,0 0.486,0.081 0.682,0.234 l 1.726,1.347 c 0.233,0.182 0.382,0.446 0.419,0.743 0.037,0.297 -0.043,0.589 -0.225,0.823 z m 11.695,2.157 c -0.148,0.19 -0.435,0.226 -0.626,0.077 l -2.712,-2.116 c -0.093,-0.072 -0.152,-0.178 -0.167,-0.297 -0.015,-0.119 0.017,-0.236 0.09,-0.329 0.072,-0.093 0.178,-0.152 0.297,-0.167 0.019,-0.002 0.038,-0.004 0.057,-0.004 0.099,0 0.194,0.032 0.272,0.093 l 2.712,2.116 c 0.093,0.072 0.152,0.178 0.167,0.297 0.015,0.119 -0.017,0.236 -0.09,0.329 z m -4.108,-8.487 c 1.208,0 2.375,0.399 3.343,1.155 1.148,0.896 1.879,2.186 2.057,3.631 0.088,0.711 0.034,1.417 -0.148,2.088 -0.079,-0.088 -0.164,-0.172 -0.26,-0.247 l -2.712,-2.116 c -0.874,-0.682 -2.14,-0.526 -2.822,0.348 -0.682,0.874 -0.526,2.14 0.349,2.822 l 2.712,2.116 c 0.127,0.099 0.269,0.157 0.409,0.221 -1.895,1.217 -4.421,1.196 -6.295,-0.266 -2.37,-1.849 -2.794,-5.283 -0.945,-7.653 0.896,-1.148 2.186,-1.879 3.631,-2.057 0.227,-0.028 0.454,-0.042 0.679,-0.042 z m 35.717,-45.7640003 c -0.328,0.041 -0.653,-0.049 -0.914,-0.253 -0.261,-0.203 -0.427,-0.496 -0.467,-0.825 -0.041,-0.328 0.049,-0.653 0.253,-0.914 0.204,-0.261 0.496,-0.427 0.825,-0.467 0.052,-0.006 0.103,-0.01 0.154,-0.01 0.274,0 0.539,0.091 0.759,0.262 v 0 c 0.261,0.203 0.427,0.496 0.467,0.825 0.04,0.328 -0.049,0.653 -0.253,0.914 -0.204,0.261 -0.496,0.427 -0.825,0.467 z m 0.531,37.6080003 h 0.003 c 1.228,0 2.285,1.56 2.515,3.551 l -5.019,0.012 c 0.22,-1.994 1.272,-3.56 2.501,-3.563 z m 1.725,7.529 c -0.277,0.427 -0.865,1.142 -1.697,1.148 -0.005,0 -0.009,0 -0.014,0 -1.226,-0.003 -2.283,-1.561 -2.512,-3.55 l 5.019,-0.012 c -0.099,0.916 -0.369,1.755 -0.797,2.413 z"
     id="path182" />
  <path
     style="fill:#999999;stroke-width:0.492698;stroke-linecap:round;stroke-linejoin:round;stroke-dasharray:0.492698, 1.47811"
     d="M 60.295515,1.4372021 C 59.66169,1.532318 59.438684,2.29741 59.001467,2.6870687 47.415953,17.358304 35.964645,32.134998 24.452071,46.863514 c -1.681444,2.233625 -3.532026,4.350585 -5.069665,6.686889 -0.12303,0.576625 0.701743,1.200124 1.159114,0.679919 2.005399,-2.392007 3.871893,-4.909998 5.819795,-7.353413 C 37.895478,32.110227 49.452974,17.361044 60.92328,2.5453179 61.230449,2.1228512 60.808628,1.3932222 60.295515,1.4372021 Z"
     id="path574" />
  <path
     style="fill:#666666;stroke-width:0.305443;stroke-linecap:round;stroke-linejoin:round;stroke-dasharray:0.305443, 0.916336"
     d="m 40.138255,33.376823 c -0.917184,0.0026 -1.655719,1.044572 -1.265241,1.899233 0.280325,0.712163 1.189579,1.172533 1.889927,0.756997 0.795675,-0.339496 1.067701,-1.470142 0.478895,-2.11649 -0.26732,-0.327389 -0.674378,-0.551424 -1.103581,-0.53974 z"
     id="path783" />
  <path
     style="fill:#666666;stroke-width:0.305443;stroke-linecap:round;stroke-linejoin:round;stroke-dasharray:0.305443, 0.916336"
     d="m 51.351711,17.879563 c -0.958948,0.01083 -1.679374,1.157904 -1.209644,2.013648 0.341476,0.679443 1.290753,1.04756 1.949223,0.586389 0.750373,-0.425127 0.928643,-1.558139 0.300174,-2.166717 -0.263479,-0.285123 -0.650919,-0.450258 -1.039753,-0.43332 z"
     id="path785" />
  <path
     style="fill:#4d4d4d;stroke-width:0.305443;stroke-linecap:round;stroke-linejoin:round;stroke-dasharray:0.305443, 0.916336"
     d="m 62.919746,2.9152434 c -0.887976,0.00437 -1.544471,0.9740725 -1.269178,1.8067709 0.240323,0.8660601 1.408995,1.2844201 2.123409,0.7104675 0.483551,-0.3004405 0.646608,-0.8899843 0.552864,-1.4273776 -0.103505,-0.64071 -0.765528,-1.1315185 -1.407095,-1.0898608 z"
     id="path787" />
  <path
     style="fill:#784421;stroke-width:0.431301;stroke-linecap:round;stroke-linejoin:round;stroke-dasharray:0.431301, 1.29391"
     d="m 17.173781,54.361178 c -0.791124,-0.01654 -1.09818,0.858518 -1.57548,1.334588 -4.696414,5.932192 -9.3824074,11.874112 -13.9640104,17.895492 -0.79847618,1.216602 0.9556686,2.095664 1.7147247,2.749379 0.4786589,0.467628 1.3939933,0.75215 1.8560848,0.106965 4.6346233,-5.68683 9.0850409,-11.521442 13.6032519,-17.30078 0.406642,-0.623721 1.021436,-1.136065 1.310893,-1.825356 0.150912,-0.552081 -0.03804,-1.162074 -0.54701,-1.457569 -0.651794,-0.49301 -1.229037,-1.144295 -1.995146,-1.45538 -0.131115,-0.03561 -0.267549,-0.05103 -0.403308,-0.04734 z"
     id="path858" />
  <path
     style="fill:#4d4d4d;stroke-width:0.253213;stroke-linecap:round;stroke-linejoin:round;stroke-dasharray:0.253213, 0.759646"
     d="m 27.271016,51.133366 c -2.009546,0.02011 -3.928317,1.233141 -4.846659,3.013858 -1.012047,1.867167 -0.807089,4.30286 0.503636,5.974246 1.165576,1.562348 3.179389,2.475951 5.124374,2.184715 0.76804,-0.116332 1.564491,-0.316689 2.198068,-0.782537 0.234336,-0.216671 -0.008,-0.505576 -0.237274,-0.591156 -1.031202,-0.776738 -2.050832,-1.573473 -3.018584,-2.428121 -0.612112,-0.785401 -0.439058,-2.054227 0.405906,-2.604766 0.447024,-0.37253 1.062027,-0.327436 1.603451,-0.267143 0.589141,0.241644 1.049033,0.713418 1.564721,1.066551 0.6577,0.483061 1.271469,1.04316 1.976973,1.452365 0.382283,0.05332 0.40044,-0.425407 0.429332,-0.689504 0.277487,-1.950431 -0.599819,-4.000128 -2.175506,-5.176491 -0.989532,-0.787648 -2.268732,-1.183107 -3.528438,-1.152017 z"
     id="path983" />
  <path
     style="fill:#333333;stroke-width:0.130587;stroke-linecap:round;stroke-linejoin:round;stroke-dasharray:0.130587, 0.391765"
     d="m 28.50439,56.766496 c -0.39038,-0.03565 -0.736564,0.3499 -0.657229,0.733639 0.05888,0.373688 0.450923,0.529674 0.701004,0.759133 0.771036,0.59309 1.5275,1.206877 2.308073,1.786542 0.394187,0.261815 0.981461,-0.09767 0.937464,-0.566692 -0.0063,-0.341562 -0.353203,-0.521872 -0.57456,-0.727256 -0.809731,-0.633255 -1.608956,-1.281481 -2.438793,-1.888159 -0.08195,-0.05463 -0.17475,-0.10154 -0.275959,-0.09721 z"
     id="path1656" />
  <path
     style="fill:#aa0000;stroke-width:0.227558;stroke-linecap:round;stroke-linejoin:round;stroke-dasharray:0.227558, 0.68268"
     d="m 63.555166,42.988863 c -0.786096,0.03166 -1.39865,0.658654 -1.787945,1.291043 -0.431664,0.728358 -0.689107,1.565609 -0.773357,2.402273 0.07058,0.32257 0.50019,0.139081 0.734642,0.187015 1.487919,-0.01067 2.983541,0.02128 4.466666,-0.01593 0.288185,-0.108567 0.08787,-0.471509 0.0771,-0.698615 -0.235709,-1.094996 -0.697477,-2.232328 -1.65778,-2.884471 -0.311733,-0.221653 -0.678656,-0.31398 -1.059322,-0.281319 z"
     id="path1727" />
</svg>
