<?xml version="1.0" encoding="UTF-8" standalone="no"?>
<svg
   version="1.1"
   viewBox="-5 -10 100.00099 64.642242"
   id="svg188"
   sodipodi:docname="light-grey-fish.svg"
   width="100.00099"
   height="64.642242"
   inkscape:version="1.2.2 (b0a84865, 2022-12-01)"
   xmlns:inkscape="http://www.inkscape.org/namespaces/inkscape"
   xmlns:sodipodi="http://sodipodi.sourceforge.net/DTD/sodipodi-0.dtd"
   xmlns="http://www.w3.org/2000/svg"
   xmlns:svg="http://www.w3.org/2000/svg">
  <defs
     id="defs192" />
  <sodipodi:namedview
     id="namedview190"
     pagecolor="#ffffff"
     bordercolor="#000000"
     borderopacity="0.25"
     inkscape:showpageshadow="2"
     inkscape:pageopacity="0.0"
     inkscape:pagecheckerboard="0"
     inkscape:deskcolor="#d1d1d1"
     showgrid="false"
     inkscape:zoom="5.0372416"
     inkscape:cx="51.814072"
     inkscape:cy="45.858432"
     inkscape:window-width="1512"
     inkscape:window-height="818"
     inkscape:window-x="0"
     inkscape:window-y="38"
     inkscape:window-maximized="0"
     inkscape:current-layer="svg188" />
  <path
     d="m 52.31279,-9.997656 c -0.20703,-0.0078 -0.41797,0.0039 -0.62109,0.03516 -0.40625,0.0625 -0.79688,0.20703 -1.1172,0.43359 -0.64062,0.44922 -0.98047,1.0352 -1.2812,1.6289 -0.60547,1.1875 -1.0781,2.6016 -2.0312,4.2109 -3.0117,5.082 -5.4414,8.1328 -7.6328,10.418 -8.625,3.043 -16.512,7.5312 -22.336,11.285 -3.3398,-6.0859 -9.7578,-10.242 -17.18,-10.242 h -3.7461 c -0.75391,0 -1.3672,0.60938 -1.3672,1.3672 0,7.1406 3.8125,13.398 9.5117,16.848 -5.6992,3.4531 -9.5117,9.7148 -9.5117,16.855 0,0.75781 0.61328,1.3672 1.3672,1.3672 h 3.7461 c 7.418,0 13.836,-4.1523 17.18,-10.242 2.6094,1.6836 5.6406,3.5117 8.957,5.2969 0.33984,2.5312 -0.07813,4.9805 -1.2891,7.1719 l 0.0039,-0.0039 c -0.44141,0.78906 -1.1719,1.7578 -1.3906,3.1406 -0.23047,1.4688 0.41016,3.1914 1.9727,4.1719 2.7031,1.6992 5.9297,0.65234 8.0312,-0.40625 3.7812,-1.8945 7.1289,-4.1914 9.9688,-6.8164 4.7461,1.3789 9.6523,2.2461 14.508,2.2461 24.383,0 36.77,-22.113 36.77,-22.113 0.234384,-0.41406 0.234384,-0.92188 0,-1.3359 0,0 -7.3672,-13.125 -21.902,-19.145 -3.4531,-6.26950003 -9.7383,-13.562 -20,-16.082 v -0.0039 h -0.0039 c -0.19531,-0.04687 -0.39844,-0.07422 -0.60547,-0.08203 z m -0.16406,2.707 c 0.0078,0.0039 0.02344,0.01172 0.125,0.03516 7.8555,1.9297 13.047,6.93749997 16.434,11.949 -2.7734,-0.79297 -5.7734,-1.3008 -8.9844,-1.4375 -0.55078,-0.02734 -1.1055,-0.04687 -1.6719,-0.04687 -0.70703,0 -1.4141,0.03125 -2.1211,0.07031 -3.8398,0.19141 -7.6914,0.88281 -11.453,1.9141 1.5742,-1.9805 3.2344,-4.28910003 5.1328,-7.4922 1.1055,-1.8672 1.6758,-3.4961 2.1172,-4.3633 0.21875,-0.43359 0.40234,-0.62109 0.41797,-0.63281 z m 5.9062,13.238 c 0.64844,0 1.2891,0.01953 1.9219,0.05078 0.07813,0.0039 0.16016,0.01172 0.23828,0.01563 0.52344,0.03125 1.043,0.07031 1.5547,0.12109 0.21094,0.02344 0.41797,0.04687 0.62891,0.07031 0.27734,0.03125 0.55078,0.07031 0.82422,0.10938 2.9688,0.42578 5.7109,1.1992 8.2305,2.2031 0.08203,0.02734 0.16797,0.04688 0.25781,0.05859 12.676,5.0938 19.414,15.945 20.281,17.41 -0.85938,1.4492 -7.4492,12.078 -19.852,17.242 -3.3984,-2.2773 -5.7969,-6.8438 -6.6836,-11.816 -0.07031,-0.39453 -0.30859,-0.73828 -0.65625,-0.94141 -0.34375,-0.19922 -0.76172,-0.24219 -1.1406,-0.10938 l -9.082,3.1641 h -0.0039 c -0.77344,0.27344 -1.6172,-0.03906 -2.0273,-0.73828 -1.8125,-3.1367 -1.8047,-5.9219 0.01563,-9.0625 0.41016,-0.69922 1.2539,-1.0078 2.0195,-0.75391 l 8.7891,2.9648 v -0.0039 c 0.39453,0.13281 0.83203,0.07813 1.1836,-0.15234 0.34766,-0.22656 0.57812,-0.60156 0.61328,-1.0195 0.38672,-4.1797 1.9258,-7.8203 4.4766,-9.7773 0.60156,-0.46094 0.71484,-1.3203 0.25391,-1.918 -0.22266,-0.28906 -0.54688,-0.47656 -0.90625,-0.52344 -0.35938,-0.04687 -0.72266,0.05078 -1.0117,0.26953 -2.9844,2.2891 -4.5977,5.9844 -5.2578,10.016 l -7.2695,-2.4492 h 0.0039 v -0.0039 c -1.9805,-0.66406 -4.1914,0.14844 -5.2539,1.9648 l -0.0078,0.0078 c -2.2188,3.8242 -2.2266,7.9883 -0.01562,11.812 0,0 0,0.0039 0.0039,0.0039 1.0664,1.832 3.3047,2.6445 5.2969,1.9453 h 0.0039 l 7.6797,-2.6758 c 1.0078,4.2539 2.9492,8.2383 5.9492,10.91 -3.3242,1.0508 -7.0078,1.6914 -11.055,1.6914 -14.75,0 -31.008,-8.8555 -40.527,-15.121 h -0.0039 c -0.33203,-0.21875 -0.74609,-0.28125 -1.1328,-0.17188 -0.38281,0.11328 -0.69922,0.38672 -0.86719,0.75391 -2.6523,5.8867 -8.5391,9.9805 -15.414,9.9805 h -2.2773 c 0.51562,-6.4102 4.5391,-11.812 10.18,-14.234 0.50391,-0.21484 0.82812,-0.70703 0.82812,-1.2539 0,-0.54687 -0.32422,-1.043 -0.82812,-1.2578 -5.6406,-2.4141 -9.6641,-7.8125 -10.18,-14.223 h 2.2773 c 6.875,0 12.762,4.1016 15.418,9.9805 0.16406,0.36719 0.48047,0.64063 0.86328,0.75 0.38672,0.11328 0.80078,0.05078 1.1328,-0.16797 8.9102,-5.8633 23.715,-13.992 37.668,-15.012 0.05469,-0.0039 0.11328,-0.0078 0.16797,-0.01172 0.90234,-0.0625 1.8008,-0.09766 2.6914,-0.09766 z m 19.914,14.844 c -0.35938,0 -0.70703,0.14453 -0.96484,0.39844 -0.25781,0.25781 -0.40234,0.60547 -0.40234,0.96875 v 1.1758 c 0,0.36328 0.14453,0.71094 0.40234,0.96484 0.25781,0.25781 0.60547,0.40234 0.96484,0.40234 0.75781,0 1.3672,-0.61328 1.3672,-1.3672 v -1.1758 c 0,-0.75391 -0.60938,-1.3672 -1.3672,-1.3672 z m -48.875,19.945 c 3.5352,1.7734 7.3359,3.4336 11.293,4.7812 -2.3672,2.0039 -4.9922,3.8555 -8.0312,5.3789 -1.6719,0.83984 -4.0469,1.3516 -5.3516,0.53125 -0.68359,-0.42969 -0.79688,-0.97266 -0.72656,-1.4336 0.08594,-0.53516 0.54297,-1.2773 1.0742,-2.2305 0.0039,0 0.0039,0 0.0039,-0.0039 1.2031,-2.1758 1.7695,-4.5781 1.7383,-7.0234 z"
     id="path182" />
  <path
     style="fill:#bbbbbb;stroke-width:0.517294;stroke-linecap:round;stroke-linejoin:round;stroke-dasharray:0.517294, 1.55189;fill-opacity:0.73333335"
     d="m 62.594646,15.705136 c -8.014687,0.148255 -15.795578,2.611963 -23.091057,5.782008 -5.974155,2.62536 -11.652272,5.877989 -17.149426,9.380408 -0.618726,0.335227 -1.39947,0.038 -1.658872,-0.611015 C 18.79046,26.248168 15.355303,22.980679 11.19855,21.395589 8.6700855,20.403301 5.9054256,20.142774 3.2104533,20.259458 c -0.457899,-0.0362 -0.7640116,0.392232 -0.5650808,0.818624 0.6760138,5.892197 4.5721679,11.295866 9.9838785,13.740657 0.557968,0.238204 1.100358,0.739207 0.914906,1.405496 -0.215146,0.828787 -1.231569,0.996906 -1.858099,1.419235 -4.3146338,2.241519 -7.4961556,6.422306 -8.6472201,11.131592 -0.2028623,0.941668 -0.4901768,1.924181 -0.4002005,2.879917 0.6964054,0.259298 1.5150117,0.04781 2.2591137,0.09577 3.6714047,-0.0517 7.3624359,-1.132703 10.3065519,-3.367456 2.449303,-1.747225 4.306714,-4.203453 5.618485,-6.890268 0.359053,-0.673746 1.268135,-0.656783 1.804957,-0.212764 9.219736,5.865609 19.06452,11.051247 29.747965,13.635688 5.236318,1.26127 10.703565,1.77805 16.050447,0.947437 1.926505,-0.287295 3.866347,-0.672379 5.701681,-1.299319 0.399362,-0.489093 -0.52111,-0.878166 -0.742036,-1.277086 -2.442875,-2.596175 -3.89966,-5.966716 -4.850938,-9.360606 0.02209,-0.45146 -0.405183,-0.898951 -0.844793,-0.584949 -2.654136,0.910711 -5.290015,1.887324 -7.971477,2.712387 -1.86573,0.334758 -3.809468,-0.779929 -4.562606,-2.501239 -0.866179,-1.616431 -1.434336,-3.454748 -1.308652,-5.278488 -0.12899,-2.13296 0.612577,-4.26088 1.756002,-6.061046 1.022913,-1.623168 3.233119,-2.194977 4.966981,-1.510878 2.345411,0.70163 4.637932,1.610307 7.010845,2.214232 0.548447,-0.2056 0.481481,-0.981306 0.66614,-1.453981 0.728842,-3.213718 2.221252,-6.462946 4.936847,-8.460055 0.778902,-0.599019 1.988413,0.217073 1.700294,1.170708 -0.491989,0.937941 -1.487969,1.503489 -2.080715,2.380576 -1.815529,2.396472 -2.569371,5.405376 -2.926817,8.338244 -0.140202,0.580312 -0.737828,1.035326 -1.333563,0.765183 -3.145336,-0.817482 -6.132528,-2.164194 -9.29211,-2.934648 -1.192028,-0.301182 -1.989418,0.890219 -2.395214,1.824977 -0.949657,2.004913 -1.168149,4.363052 -0.390115,6.461301 0.404808,1.175438 1.009008,2.657398 2.412941,2.848372 1.002994,-0.06247 1.92686,-0.598094 2.893115,-0.854636 2.457517,-0.788301 4.840896,-1.818369 7.354514,-2.413807 0.849474,-0.175951 1.102717,0.821486 1.212847,1.447076 0.834355,3.870667 2.506575,7.734452 5.484673,10.434571 0.479872,0.320328 0.910144,1.028304 1.551177,0.915916 7.25562,-3.136036 13.493586,-8.415697 18.137272,-14.780734 0.572791,-0.877481 1.302991,-1.703237 1.704133,-2.659853 C 95.496458,32.989449 93.222228,30.38555 90.878449,27.907709 85.372937,22.356889 78.403681,18.077603 70.682162,16.521624 68.025161,15.974299 65.308542,15.680836 62.594646,15.705136 Z M 83.039792,31.07284 c 0.665169,-0.01482 1.13199,0.606425 1.021389,1.239608 -0.04582,0.659894 0.218327,1.743048 -0.619704,2.020954 -0.644844,0.248317 -1.598326,-0.06484 -1.543094,-0.873079 0.03836,-0.681745 -0.226724,-1.506812 0.24772,-2.078541 0.234919,-0.226655 0.571967,-0.32627 0.893689,-0.308942 z"
     id="path444"
     transform="translate(-5,-10)" />
  <path
     style="fill:#bbbbbb;stroke-width:0.132743;stroke-linecap:round;stroke-linejoin:round;stroke-dasharray:0.132743, 0.398233;fill-opacity:1"
     d="m 57.159204,2.5452426 c -0.229907,0.011609 -0.314816,0.2715306 -0.435581,0.4295305 -0.451709,0.8166502 -0.774488,1.6983162 -1.179298,2.536419 -0.773635,1.6985444 -1.799814,3.283596 -2.809372,4.8528299 -1.005362,1.540764 -2.081029,3.040243 -3.217907,4.491133 -0.116314,0.124818 -0.153634,0.371193 0.03909,0.443988 0.249474,0.04908 0.493586,-0.09011 0.736965,-0.130836 4.013911,-1.045595 8.143282,-1.694447 12.292099,-1.756834 2.924101,-0.01936 5.836697,0.239654 8.69548,0.867524 0.761154,0.161133 1.522142,0.362938 2.276872,0.555004 0.209255,0.01463 0.289311,-0.250655 0.173592,-0.398049 C 73.241837,13.658702 72.67016,12.935726 72.1011,12.215688 71.033863,10.877663 69.838048,9.6458863 68.568924,8.4991308 65.991666,6.2148269 62.984519,4.4047471 59.724752,3.2816399 58.902568,3.0009423 58.070942,2.7395211 57.22303,2.5491831 c -0.02117,-0.00259 -0.04248,-0.00442 -0.06383,-0.00394 z"
     id="path450"
     transform="translate(-5,-10)" />
  <path
     style="fill:#bbbbbb;stroke-width:0.132743;stroke-linecap:round;stroke-linejoin:round;stroke-dasharray:0.132743, 0.398233;fill-opacity:1"
     d="m 34.112027,50.601739 c -0.243951,0.07092 -0.177062,0.379089 -0.204547,0.570915 -0.03768,1.516921 -0.282985,3.010115 -0.791756,4.432889 -0.342427,1.017631 -0.853521,1.955786 -1.383531,2.890417 -0.288016,0.579007 -0.691188,1.162736 -0.651037,1.838973 0.04352,0.710159 0.654754,1.240208 1.286658,1.469135 0.612632,0.221657 1.280891,0.274957 1.924979,0.190059 1.230615,-0.115738 2.413231,-0.543316 3.502655,-1.114685 2.624176,-1.359528 5.078865,-3.035227 7.350082,-4.92354 0.131924,-0.138214 0.403022,-0.26873 0.326577,-0.49949 -0.139029,-0.215739 -0.436918,-0.22873 -0.652189,-0.331211 -3.43804,-1.21077 -6.800482,-2.648432 -10.071887,-4.271456 -0.210114,-0.07739 -0.40795,-0.246762 -0.636004,-0.252006 z"
     id="path452"
     transform="translate(-5,-10)" />
</svg>
