<?xml version="1.0" encoding="UTF-8" standalone="no"?>
<!-- Uploaded to: SVG Repo, www.svgrepo.com, Generator: SVG Repo Mixer Tools -->

<svg
   fill="#000000"
   height="800px"
   width="800px"
   version="1.1"
   id="Capa_1"
   viewBox="0 0 475.609 475.609"
   xml:space="preserve"
   sodipodi:docname="red-bucket.svg"
   inkscape:version="1.2.2 (b0a84865, 2022-12-01)"
   xmlns:inkscape="http://www.inkscape.org/namespaces/inkscape"
   xmlns:sodipodi="http://sodipodi.sourceforge.net/DTD/sodipodi-0.dtd"
   xmlns="http://www.w3.org/2000/svg"
   xmlns:svg="http://www.w3.org/2000/svg"><defs
   id="defs187" /><sodipodi:namedview
   id="namedview185"
   pagecolor="#ffffff"
   bordercolor="#000000"
   borderopacity="0.25"
   inkscape:showpageshadow="2"
   inkscape:pageopacity="0.0"
   inkscape:pagecheckerboard="0"
   inkscape:deskcolor="#d1d1d1"
   showgrid="false"
   inkscape:zoom="0.70710678"
   inkscape:cx="159.09903"
   inkscape:cy="292.0351"
   inkscape:window-width="1920"
   inkscape:window-height="925"
   inkscape:window-x="0"
   inkscape:window-y="25"
   inkscape:window-maximized="1"
   inkscape:current-layer="Capa_1" />
<path
   d="M474.709,38.208c0-4.142-3.357-7.5-7.5-7.5l-14.87,0V7.5c0-4.142-3.357-7.5-7.5-7.5H30.77c-4.143,0-7.5,3.358-7.5,7.5  v23.207l-14.87,0c-4.143,0-7.5,3.358-7.5,7.5c0,48.198,15.972,93.263,45.161,128.018v271.896c0,20.671,16.816,37.488,37.487,37.488  H392.06c20.671,0,37.487-16.817,37.487-37.488V166.226C458.737,131.47,474.709,86.406,474.709,38.208z M459.574,45.708  c-1.308,36.36-12.11,69.24-30.026,96.14V76.415h15.291c4.143,0,7.5-3.358,7.5-7.5V45.707L459.574,45.708z M38.27,15h399.068v46.415  h-32.721c-4.143,0-7.5,3.358-7.5,7.5s3.357,7.5,7.5,7.5h9.93v84.739c-28.691,31.806-69.109,51.691-115.505,53.631v-11.885  c0-4.142-3.357-7.5-7.5-7.5H184.066c-4.143,0-7.5,3.358-7.5,7.5v11.885c-46.396-1.94-86.814-21.825-115.505-53.631V76.415h268.866  c4.143,0,7.5-3.358,7.5-7.5s-3.357-7.5-7.5-7.5H38.27V15z M191.566,210.399h92.477v24.104h-92.477V210.399z M16.035,45.708l7.235,0  v23.207c0,4.142,3.357,7.5,7.5,7.5h15.291v65.433C28.145,114.947,17.343,82.068,16.035,45.708z M392.06,460.609H83.549  c-12.399,0-22.487-10.088-22.487-22.488V182.056c31.306,29.302,71.692,46.021,115.505,47.735v12.212c0,4.142,3.357,7.5,7.5,7.5  h107.477c4.143,0,7.5-3.358,7.5-7.5V229.79c43.813-1.714,84.199-18.433,115.505-47.735v256.066  C414.548,450.521,404.46,460.609,392.06,460.609z"
   id="path182" />
<path
   style="fill:#c50000;stroke-width:4.00879;stroke-linecap:round;stroke-linejoin:round;stroke-dasharray:4.00879, 12.0264;fill-opacity:1"
   d="m 101.71841,305.99493 c -1.11918,10.86931 -0.18455,22.1071 -0.50687,33.11938 0.0372,124.49806 -0.50707,248.99739 -0.0456,373.49464 0.51354,12.41203 -0.51241,25.07399 2.02326,37.29989 5.23072,12.64301 16.68305,23.85161 30.69511,25.47984 43.59813,1.17134 87.23085,0.54717 130.84288,0.7917 124.02889,-0.0752 248.05965,0.3913 372.08733,-0.20665 12.16042,-0.54231 24.5871,0.53819 36.55548,-1.98874 10.33924,-4.65347 19.06617,-13.44698 23.34419,-23.95324 2.52406,-13.41453 1.41345,-27.24006 1.93608,-40.82559 0.38307,-121.99807 0.2587,-243.99857 -0.0601,-365.99688 -0.21463,-11.81989 0.18201,-23.70005 -0.52946,-35.48525 -2.74363,-3.34263 -5.73712,1.72723 -8.13419,3.12647 -44.2817,39.18031 -100.55322,64.33352 -159.24652,71.63764 -9.4275,1.43402 -18.99308,1.60157 -28.33775,2.80391 -2.68405,3.0049 -0.55309,8.36279 -1.23563,12.28426 -0.49377,6.23866 1.81535,14.6697 -4.62658,18.6016 -4.20081,2.74065 -9.84637,0.82585 -14.69554,1.54917 -56.31706,0.35605 -112.64345,0.55929 -168.95823,-0.0698 -5.16234,0.25802 -12.29354,-0.55252 -13.34314,-6.84898 -1.7941,-8.19081 0.17077,-17.08288 -1.45979,-25.27492 -9.68526,-1.65391 -19.8485,-1.50374 -29.60537,-3.15658 -60.64024,-8.08958 -119.25956,-34.39976 -163.83667,-76.56281 -1.17608,-0.64758 -1.76669,-0.57487 -2.86296,0.18092 z"
   id="path1002"
   transform="scale(0.59451125)" /><path
   style="fill:#c50000;stroke-width:4.00879;stroke-linecap:round;stroke-linejoin:round;stroke-dasharray:4.00879, 12.0264;fill-opacity:1"
   d="m 63.266722,24.062346 c -1.331659,7.783632 -0.181627,16.052218 -0.566238,24.020915 0.183406,18.581448 -0.366966,37.311683 0.275435,55.800059 2.627272,2.9258 7.948016,0.61499 11.622462,1.35571 161.621779,0.11704 323.243549,0.23436 484.865329,0.3519 6.99181,3.16404 8.56084,13.52696 2.81185,18.50217 -4.34609,3.4874 -10.40223,1.50258 -15.49143,2.24976 -108.35724,0.68305 -216.71936,0.20273 -325.07854,0.35079 -39.60718,-1e-5 -79.21437,-1e-5 -118.82155,0 -3.990045,1.79303 -1.14116,7.68311 -1.99979,11.19217 0,44.25126 0,88.50252 0,132.75378 4.56929,6.6614 11.02593,12.15727 16.79785,17.89944 34.91184,32.37109 77.99081,56.11046 124.52086,66.67288 17.82705,3.97278 35.9758,7.2165 54.28746,7.41232 4.03844,-1.70037 1.29525,-7.66181 2.21993,-11.15328 0.78158,-6.19042 -1.73119,-14.14485 3.88854,-18.63773 4.11015,-3.31586 9.88629,-1.46009 14.77562,-2.17444 54.60008,-0.27651 109.20677,-0.40108 163.80592,0.0165 5.44403,0.56605 11.54963,-0.55616 16.56888,1.96875 4.49064,4.42491 2.69438,10.88907 3.239,16.4705 0.45138,4.28492 -0.60795,8.90493 0.84205,12.96834 8.59947,1.46043 17.58921,-0.52966 26.26333,-1.35878 60.85185,-7.62119 119.08022,-35.87222 161.90224,-79.90707 3.1726,-4.16319 10.16297,-6.85572 8.85758,-13.04728 0,-46.35876 10e-6,-92.71753 0,-139.0763 -1.79302,-3.99004 -7.68311,-1.14115 -11.19217,-1.99978 -5.6864,0.0543 -13.28373,0.89323 -16.36703,-5.14448 -3.94274,-6.25375 0.21452,-16.56932 8.2919,-16.05254 18.6786,-0.67001 37.51373,0.22464 56.10392,-0.53469 2.92356,-2.62873 0.60919,-7.948912 1.34715,-11.623845 -0.18347,-22.825915 0.36705,-45.800665 -0.27543,-68.533508 -2.628,-2.925915 -7.94887,-0.610254 -11.62385,-1.348529 -220.14591,0 -440.29182,0 -660.43773,0 -0.477849,0.202096 -0.955699,0.404192 -1.433548,0.606288 z"
   id="path1004"
   transform="scale(0.59451125)" /><path
   style="fill:#4d4d4d;stroke-width:4.00879;stroke-linecap:round;stroke-linejoin:round;stroke-dasharray:4.00879, 12.0264"
   d="m 321.3607,352.867 c -1.33166,7.78363 -0.18163,16.05222 -0.56624,24.02091 0.3703,6.1006 -0.76212,12.5059 0.60629,18.40411 7.78363,1.33166 16.05221,0.18163 24.02091,0.56624 44.07632,0 88.15265,0 132.22897,0 3.99004,-1.79303 1.14116,-7.68311 1.99978,-11.19217 -0.18291,-10.33381 0.3663,-20.81608 -0.27543,-31.05685 -2.628,-2.92592 -7.94887,-0.61026 -11.62385,-1.34853 -48.31896,0 -96.63792,0 -144.95689,0 -0.47785,0.2021 -0.95569,0.40419 -1.43354,0.60629 z"
   id="path1006"
   transform="scale(0.59451125)" /></svg>
